<?xml version="1.0" standalone="no"?>
<!DOCTYPE svg PUBLIC "-//W3C//DTD SVG 20010904//EN"
 "http://www.w3.org/TR/2001/REC-SVG-20010904/DTD/svg10.dtd">
<svg version="1.0" xmlns="http://www.w3.org/2000/svg"
 width="512.000000pt" height="512.000000pt" viewBox="0 0 512.000000 512.000000"
 preserveAspectRatio="xMidYMid meet">
<metadata>
Created by potrace 1.11, written by Peter Selinger 2001-2013
</metadata>
<g transform="translate(0.000000,512.000000) scale(0.100000,-0.100000)"
fill="#000000" stroke="none">
<path d="M1318 4989 c-264 -23 -516 -128 -753 -314 -263 -207 -454 -527 -537
-902 -30 -135 -33 -500 -5 -638 40 -196 106 -373 221 -586 433 -804 1182
-1598 2232 -2368 l82 -60 142 105 c924 683 1636 1414 2060 2118 190 315 282
531 337 786 27 130 25 508 -5 640 -75 339 -226 614 -453 826 -138 129 -232
194 -394 269 -367 173 -762 168 -1122 -13 -173 -88 -385 -254 -507 -400 l-59
-70 -47 57 c-141 166 -326 315 -509 409 -224 116 -450 162 -683 141z"/>
</g>
</svg>
